<?xml version="1.0" standalone="no"?><!DOCTYPE svg PUBLIC "-//W3C//DTD SVG 1.1//EN" "http://www.w3.org/Graphics/SVG/1.1/DTD/svg11.dtd"><svg t="1570087894929" class="icon" viewBox="0 0 1024 1024" version="1.1" xmlns="http://www.w3.org/2000/svg" p-id="7456" xmlns:xlink="http://www.w3.org/1999/xlink" width="200" height="200"><defs><style type="text/css"></style></defs><path d="M260.5568 640l-180.6336 128-3.072-177.3824C76.8 590.0032 76.8 589.4144 76.8 588.8V153.6a25.6 25.6 0 0 1 25.6-25.6h640a25.6 25.6 0 0 1 25.6 25.6v460.8a25.6 25.6 0 0 1-25.6 25.6H260.5568zM819.2 307.2h102.4a25.6 25.6 0 0 1 25.6 25.6v435.2l-0.0256 1.8176-3.072 177.3824-180.6592-128H332.8a25.6 25.6 0 0 1-25.6-25.6v-102.4h486.4a25.6 25.6 0 0 0 25.6-25.6V307.2z m-537.6 102.4a25.6 25.6 0 1 0 0 51.2h281.6a25.6 25.6 0 1 0 0-51.2H281.6z m0-128a25.6 25.6 0 1 0 0 51.2h281.6a25.6 25.6 0 1 0 0-51.2H281.6z" p-id="7457"></path></svg>