<?xml version="1.0" standalone="no"?><!DOCTYPE svg PUBLIC "-//W3C//DTD SVG 1.1//EN" "http://www.w3.org/Graphics/SVG/1.1/DTD/svg11.dtd"><svg t="1567934434766" class="icon" viewBox="0 0 1024 1024" version="1.1" xmlns="http://www.w3.org/2000/svg" p-id="547" xmlns:xlink="http://www.w3.org/1999/xlink" width="200" height="200"><defs><style type="text/css"></style></defs><path d="M663.478857 271.652571a78.262857 78.262857 0 0 1 78.409143 78.409143v559.030857c0 43.227429-35.108571 78.336-78.409143 78.336h-548.571428C71.68 987.428571 36.571429 952.32 36.571429 909.092571V350.061714a78.262857 78.262857 0 0 1 78.336-78.409143h548.571428z m-548.571428 78.336v559.030858h548.571428V349.988571h-548.571428zM898.706286 36.571429H310.857143a39.204571 39.204571 0 0 0 0 78.336h535.405714c36.425143 0 52.370286 16.310857 52.370286 54.491428V713.142857a39.204571 39.204571 0 0 0 78.336 0V114.907429A78.262857 78.262857 0 0 0 898.633143 36.571429z" p-id="548"></path></svg>
