<?xml version="1.0" standalone="no"?><!DOCTYPE svg PUBLIC "-//W3C//DTD SVG 1.1//EN" "http://www.w3.org/Graphics/SVG/1.1/DTD/svg11.dtd"><svg t="1570087328941" class="icon" viewBox="0 0 1024 1024" version="1.1" xmlns="http://www.w3.org/2000/svg" p-id="3821" xmlns:xlink="http://www.w3.org/1999/xlink"><defs><style type="text/css"></style></defs><path d="M896 64H128a64 64 0 0 0-64 64v768a64 64 0 0 0 64 64h768a64 64 0 0 0 64-64V128a64 64 0 0 0-64-64z m-768 64h768v192H128V128z m768 768H128V384h768v512z" p-id="3822"></path><path d="M256 576h512a32 32 0 0 0 0-64H256a32 32 0 0 0 0 64z m0 160h512a32 32 0 0 0 0-64H256a32 32 0 0 0 0 64z m512-544h-64a32 32 0 0 0 0 64h64a32 32 0 0 0 0-64z" p-id="3823"></path></svg>
