<?xml version="1.0" standalone="no"?><!DOCTYPE svg PUBLIC "-//W3C//DTD SVG 1.1//EN" "http://www.w3.org/Graphics/SVG/1.1/DTD/svg11.dtd"><svg t="1570150973372" class="icon" viewBox="0 0 1024 1024" version="1.1" xmlns="http://www.w3.org/2000/svg" p-id="1823" xmlns:xlink="http://www.w3.org/1999/xlink" width="200" height="200"><defs><style type="text/css"></style></defs><path d="M281.6 0H10.24C5.12 0 0 5.12 0 10.24v458.24c0 5.12 0 15.36 12.8 17.92h404.48c12.8 0 15.36-7.68 15.36-15.36V153.6l-64-61.44L281.6 0zM250.88 48.64c0-5.12 2.56-5.12 5.12-5.12h2.56c2.56 0 5.12 2.56 5.12 2.56s99.84 94.72 102.4 97.28c5.12 2.56 2.56 15.36-7.68 12.8h-99.84c-5.12 0-10.24-5.12-10.24-10.24l2.56-97.28zM371.2 435.2H69.12c-10.24 0-17.92 2.56-17.92-17.92V76.8c0-5.12-5.12-30.72 25.6-25.6h128v138.24c0 10.24 5.12 15.36 17.92 15.36H384v212.48s2.56 17.92-12.8 17.92zM279.04 537.6H10.24c-5.12 0-10.24 5.12-10.24 10.24v458.24c0 5.12 0 15.36 12.8 17.92h404.48c12.8 0 15.36-7.68 15.36-15.36V691.2l-64-61.44-89.6-92.16z m-28.16 48.64c0-5.12 2.56-5.12 5.12-5.12h2.56c2.56 0 5.12 2.56 5.12 2.56s99.84 94.72 102.4 97.28c5.12 2.56 2.56 15.36-7.68 12.8h-99.84c-5.12 0-10.24-5.12-10.24-10.24l2.56-97.28zM368.64 972.8H66.56c-10.24 0-15.36 2.56-15.36-17.92V614.4c0-5.12-5.12-30.72 25.6-25.6h128v128c0 10.24 0 23.04 15.36 25.6h161.28v212.48c2.56 0 5.12 17.92-12.8 17.92zM819.2 537.6H547.84c-5.12 0-10.24 5.12-10.24 10.24v458.24c0 5.12 0 15.36 12.8 17.92h404.48c12.8 0 15.36-7.68 15.36-15.36V691.2l-64-61.44L819.2 537.6z m-30.72 48.64c0-5.12 2.56-5.12 5.12-5.12h2.56c2.56 0 5.12 2.56 5.12 2.56s99.84 94.72 102.4 97.28c5.12 2.56 2.56 15.36-7.68 12.8h-99.84c-5.12 0-10.24-5.12-10.24-10.24l2.56-97.28zM908.8 972.8H606.72c-10.24 0-17.92 2.56-17.92-17.92V614.4c0-5.12-5.12-30.72 25.6-25.6h128v138.24c0 10.24 5.12 15.36 17.92 15.36H921.6v212.48s2.56 17.92-12.8 17.92zM816.64 0H545.28c-2.56 0-7.68 5.12-7.68 10.24v458.24c0 5.12 0 15.36 12.8 17.92h404.48c12.8 0 15.36-7.68 15.36-15.36V153.6l-64-61.44L816.64 0z m-28.16 48.64c0-5.12 2.56-5.12 5.12-5.12h2.56c2.56 0 5.12 2.56 5.12 2.56s99.84 94.72 102.4 97.28c5.12 2.56 2.56 15.36-7.68 12.8h-99.84c-5.12 0-10.24-5.12-10.24-10.24l2.56-97.28zM906.24 435.2H604.16c-10.24 0-17.92 2.56-17.92-17.92L588.8 76.8c0-5.12-5.12-30.72 25.6-25.6h128v128c0 10.24 2.56 23.04 15.36 25.6H921.6v212.48s2.56 17.92-15.36 17.92z" fill="" p-id="1824"></path></svg>