<?xml version="1.0" standalone="no"?><!DOCTYPE svg PUBLIC "-//W3C//DTD SVG 1.1//EN" "http://www.w3.org/Graphics/SVG/1.1/DTD/svg11.dtd"><svg t="1570151111881" class="icon" viewBox="0 0 1024 1024" version="1.1" xmlns="http://www.w3.org/2000/svg" p-id="1936" xmlns:xlink="http://www.w3.org/1999/xlink" width="200" height="200"><defs><style type="text/css"></style></defs><path d="M760.659056 394.099335l-169.621684-169.621684a21.206709 21.206709 0 0 0-30.002855 30.002855l133.413548 133.413548h-182.000261V154.652243a21.206709 21.206709 0 0 0-21.206709-21.206709H130.759031a21.206709 21.206709 0 0 0-21.206709 21.206709v848.140408c0 11.738857 9.499838 21.206709 21.206709 21.206709h614.898598a21.206709 21.206709 0 0 0 21.206709-21.206709V409.100763a21.238695 21.238695 0 0 0-6.205282-15.001428z m-36.208136 587.486608H151.96574V175.890938h318.03666v233.241811c0 11.706871 9.499838 21.206709 21.206709 21.206709h233.241811v551.246485z m183.791476-720.836184l-169.621684-169.65367a21.878415 21.878415 0 0 0-2.654837-2.23902L654.369624 7.580679a20.566989 20.566989 0 0 0-2.654837-2.622851l-0.031986-0.031986a21.174723 21.174723 0 0 0-13.530072-4.893856H278.342371a21.206709 21.206709 0 0 0-21.206709 21.206709v52.425031a21.430611 21.430611 0 0 0 18.743788 21.238695h5.309674a21.430611 21.430611 0 0 0 18.359956-25.236943v-27.188088h331.150915l241.334265 241.941999v563.753005h-34.448907c-0.927594-0.127944-1.823201-0.191916-2.782781-0.191915s-1.855187 0.095958-2.782781 0.191915a21.430611 21.430611 0 0 0 5.405632 42.445404h55.78356a21.206709 21.206709 0 0 0 21.206709-21.206709V275.719201a21.238695 21.238695 0 0 0-6.205282-15.001428z" p-id="1937"></path></svg>