<?xml version="1.0" standalone="no"?><!DOCTYPE svg PUBLIC "-//W3C//DTD SVG 1.1//EN" "http://www.w3.org/Graphics/SVG/1.1/DTD/svg11.dtd"><svg t="1570087134890" class="icon" viewBox="0 0 1219 1024" version="1.1" xmlns="http://www.w3.org/2000/svg" p-id="2443" xmlns:xlink="http://www.w3.org/1999/xlink"><defs><style type="text/css"></style></defs><path d="M213.528381 992.158476a35.888762 35.888762 0 0 1-36.035048-35.693714v-87.576381c0-87.478857 26.477714-171.641905 76.556191-243.516952a433.347048 433.347048 0 0 1 196.217905-155.501715l13.06819-5.168762-11.068952-8.679619a252.732952 252.732952 0 0 1-98.499048-200.167619c0-140.434286 115.078095-254.634667 256.487619-254.634666 141.312 0 256.341333 114.249143 256.341333 254.634666a252.732952 252.732952 0 0 1-98.401523 200.167619l-11.117715 8.679619 13.068191 5.168762a433.347048 433.347048 0 0 1 196.266666 155.501715 423.984762 423.984762 0 0 1 76.507429 243.516952v87.576381a35.888762 35.888762 0 0 1-35.986286 35.693714H213.528381zM37.205333 860.793905a35.888762 35.888762 0 0 1-36.035047-35.693715v-67.779047a340.114286 340.114286 0 0 1 185.197714-303.542857l9.411048-4.876191-7.119238-7.801905a209.578667 209.578667 0 0 1-55.247239-141.409523c0-115.078095 93.281524-208.896 208.652191-210.895238l-2.194286 3.559619a269.360762 269.360762 0 0 0-40.96 76.409904 138.873905 138.873905 0 0 0-93.476571 130.925715c0 54.51581 32.377905 104.350476 82.407619 126.927238l0.243809 0.097524 0.24381 0.097523c14.921143 5.607619 24.527238 18.529524 24.527238 32.963048 0 14.726095-10.337524 28.135619-25.84381 33.401905l-8.192 1.950476A270.482286 270.482286 0 0 0 73.142857 757.369905v31.987809h42.081524a444.416 444.416 0 0 0-7.119238 71.484953H37.205333z m1074.566096 0a444.220952 444.220952 0 0 0-7.119239-71.436191h42.081524v-31.987809a270.433524 270.433524 0 0 0-205.482666-262.192762l-8.338286-1.999238c-15.457524-5.266286-25.84381-18.67581-25.84381-33.401905 0-14.433524 9.654857-27.355429 24.576-32.963048l0.24381-0.097523 0.195048-0.097524a139.654095 139.654095 0 0 0 82.407619-126.927238c0-59.050667-37.351619-111.177143-93.42781-130.925715a269.165714 269.165714 0 0 0-40.96-76.409904 343.28381 343.28381 0 0 0-2.194286-3.559619c115.370667 1.950476 208.603429 95.817143 208.603429 210.895238 0 52.175238-19.602286 102.4-55.198476 141.409523l-7.119238 7.801905 9.362285 4.876191a340.065524 340.065524 0 0 1 185.197715 303.591619v67.730285a35.888762 35.888762 0 0 1-35.986286 35.693715H1111.771429z" p-id="2444"></path></svg>
