<?xml version="1.0" standalone="no"?><!DOCTYPE svg PUBLIC "-//W3C//DTD SVG 1.1//EN" "http://www.w3.org/Graphics/SVG/1.1/DTD/svg11.dtd"><svg t="1567935748787" class="icon" viewBox="0 0 1024 1024" version="1.1" xmlns="http://www.w3.org/2000/svg" p-id="2278" xmlns:xlink="http://www.w3.org/1999/xlink" width="200" height="200"><defs><style type="text/css"></style></defs><path d="M0 0 1024 0 0 0Z" p-id="2279"></path><path d="M0 963.776 1024 963.776 0 963.776Z" p-id="2280"></path><path d="M0 903.488 1024 903.488 0 903.488Z" p-id="2281"></path><path d="M0 843.264 1024 843.264 0 843.264Z" p-id="2282"></path><path d="M0 782.976 1024 782.976 0 782.976Z" p-id="2283"></path><path d="M0 722.752 1024 722.752 0 722.752Z" p-id="2284"></path><path d="M0 662.528 1024 662.528 0 662.528Z" p-id="2285"></path><path d="M0 602.24 1024 602.24 0 602.24Z" p-id="2286"></path><path d="M0 542.016 1024 542.016 0 542.016Z" p-id="2287"></path><path d="M0 481.984 1024 481.984 0 481.984Z" p-id="2288"></path><path d="M0 421.76 1024 421.76 0 421.76Z" p-id="2289"></path><path d="M0 361.472 1024 361.472 0 361.472Z" p-id="2290"></path><path d="M0 301.248 1024 301.248 0 301.248Z" p-id="2291"></path><path d="M0 241.024 1024 241.024 0 241.024Z" p-id="2292"></path><path d="M0 180.736 1024 180.736 0 180.736Z" p-id="2293"></path><path d="M0 120.512 1024 120.512 0 120.512Z" p-id="2294"></path><path d="M0 60.224 1024 60.224 0 60.224Z" p-id="2295"></path><path d="M0 1024 1024 1024 0 1024Z" p-id="2296"></path><path d="M0 0 0 1024 0 0Z" p-id="2297"></path><path d="M963.776 0 963.776 1024 963.776 0Z" p-id="2298"></path><path d="M903.488 0 903.488 1024 903.488 0Z" p-id="2299"></path><path d="M843.264 0 843.264 1024 843.264 0Z" p-id="2300"></path><path d="M782.976 0 782.976 1024 782.976 0Z" p-id="2301"></path><path d="M722.752 0 722.752 1024 722.752 0Z" p-id="2302"></path><path d="M662.528 0 662.528 1024 662.528 0Z" p-id="2303"></path><path d="M602.24 0 602.24 1024 602.24 0Z" p-id="2304"></path><path d="M542.016 0 542.016 1024 542.016 0Z" p-id="2305"></path><path d="M481.984 0 481.984 1024 481.984 0Z" p-id="2306"></path><path d="M421.76 0 421.76 1024 421.76 0Z" p-id="2307"></path><path d="M361.472 0 361.472 1024 361.472 0Z" p-id="2308"></path><path d="M301.248 0 301.248 1024 301.248 0Z" p-id="2309"></path><path d="M241.024 0 241.024 1024 241.024 0Z" p-id="2310"></path><path d="M180.736 0 180.736 1024 180.736 0Z" p-id="2311"></path><path d="M120.512 0 120.512 1024 120.512 0Z" p-id="2312"></path><path d="M60.224 0 60.224 1024 60.224 0Z" p-id="2313"></path><path d="M1024 0 1024 1024 1024 0Z" p-id="2314"></path><path d="M928.064 226.432 96 226.432C78.336 226.432 64 240.832 64 258.688l0 506.624c0 17.856 14.336 32.384 32 32.384l832.064 0c17.536 0 31.936-14.528 31.936-32.384L960 258.688C960 240.832 945.6 226.432 928.064 226.432zM472 264.96l79.936 0 0 80.704L472 345.664 472 264.96 472 264.96zM228.352 756.992l-80 0 0-80.64 80 0L228.352 756.992zM228.352 345.664l-80 0L148.352 264.96l80 0L228.352 345.664zM390.208 756.992 310.272 756.992l0-80.64 79.936 0L390.208 756.992zM390.208 345.664 310.272 345.664 310.272 264.96l79.936 0L390.208 345.664zM551.936 756.992 472 756.992l0-80.64 79.936 0L551.936 756.992zM426.688 611.392 426.688 412.608 597.376 512 426.688 611.392zM713.792 756.992 633.856 756.992l0-80.64 79.936 0L713.792 756.992zM713.792 345.664 633.856 345.664 633.856 264.96l79.936 0L713.792 345.664zM875.648 756.992l-79.936 0 0-80.64 79.936 0L875.648 756.992zM875.648 345.664l-79.936 0L795.712 264.96l79.936 0L875.648 345.664z" p-id="2315"></path></svg>